<!-- Generated by IcoMoon.io -->
<svg version="1.1" xmlns="http://www.w3.org/2000/svg" width="1024" height="1024" viewBox="0 0 1024 1024">
<title></title>
<g id="icomoon-ignore">
</g>
<path fill="#005bbb" d="M1065.292-1.778h-1106.602c-41.93 0-82.138 16.649-111.791 46.303s-46.303 69.861-46.303 111.791v355.684h1422.772v-355.684c0-41.93-16.648-82.138-46.304-111.791-29.652-29.653-69.86-46.303-111.79-46.303z"></path>
<path fill="#ffd500" d="M1223.386 867.685c0 41.931-16.648 82.138-46.304 111.79-29.652 29.655-69.86 46.304-111.79 46.304h-1106.602c-41.93 0-82.138-16.648-111.791-46.304-29.653-29.652-46.303-69.86-46.303-111.79v-355.684h1422.772v355.684z"></path>
</svg>
